# Converted from FlightGear/ArduPilot Rascal AC3D geometry
mtllib rascal.mtl
o Elevator
v -0.0190500 -0.0057729 0.0069500
v -0.0190500 -0.0049221 0.0101200
v 0.0000000 -0.0049221 0.0101200
v 0.0000000 -0.0057729 0.0069500
v -0.0190500 -0.0025979 0.0124500
v 0.0000000 -0.0025979 0.0124500
v -0.0190500 0.0005771 0.0133000
v 0.0000000 0.0005771 0.0133000
v -0.0190500 0.0037521 0.0124500
v 0.0000000 0.0037521 0.0124500
v -0.0190500 0.0060764 0.0101200
v 0.0000000 0.0060764 0.0101200
v -0.0190500 0.0069271 0.0069500
v 0.0000000 0.0069271 0.0069500
v -0.0190500 0.0069271 0.0006000
v 0.0000000 0.0069271 0.0006000
v 0.0000000 -0.0057729 0.0006000
v -0.0190500 -0.0057729 0.0006000
v -0.0254000 0.0060764 0.0228200
v -0.0254000 0.0069271 0.0196500
v -0.0254000 0.0037521 0.0251500
v -0.0254000 0.0005771 0.0260000
v -0.0254000 -0.0025979 0.0251500
v -0.0254000 -0.0049221 0.0228200
v -0.0254000 -0.0057729 0.0196500
v -0.0254000 -0.0057729 0.0006000
v -0.0381000 0.0060764 0.0482200
v -0.0381000 0.0069271 0.0450500
v -0.0381000 0.0037521 0.0505500
v -0.0381000 0.0005771 0.0514000
v -0.0381000 -0.0025979 0.0505500
v -0.0381000 -0.0049221 0.0482200
v -0.0381000 -0.0057729 0.0450500
v -0.0381000 -0.0057729 0.0006000
v -0.0571500 0.0060764 0.0609200
v -0.0571500 0.0069271 0.0577500
v -0.0571500 0.0037521 0.0632500
v -0.0571500 0.0005771 0.0641000
v -0.0571500 -0.0025979 0.0632500
v -0.0571500 -0.0049221 0.0609200
v -0.0571500 -0.0057729 0.0577500
v -0.0571500 -0.0057729 0.0006000
v -0.0762000 0.0060764 0.0672700
v -0.0762000 0.0069271 0.0641000
v -0.0762000 0.0037521 0.0696000
v -0.0762000 0.0005771 0.0704500
v -0.0762000 -0.0025979 0.0696000
v -0.0762000 -0.0049221 0.0672700
v -0.0762000 -0.0057729 0.0641000
v -0.0762000 -0.0057729 0.0006000
v -0.1016000 0.0060764 0.0736200
v -0.1016000 0.0069271 0.0704500
v -0.1016000 0.0037521 0.0759500
v -0.1016000 0.0005771 0.0768000
v -0.1016000 -0.0025979 0.0759500
v -0.1016000 -0.0049221 0.0736200
v -0.1016000 -0.0057729 0.0704500
v -0.1016000 -0.0057729 0.0006000
v -0.1397000 0.0060764 0.0770600
v -0.1397000 0.0069271 0.0738800
v -0.1397000 0.0037521 0.0793800
v -0.1397000 0.0005771 0.0802300
v -0.1397000 -0.0025979 0.0793800
v -0.1397000 -0.0049221 0.0770600
v -0.1397000 -0.0057729 0.0738800
v -0.1397000 -0.0057729 0.0006000
v -0.1778000 0.0060764 0.0742800
v -0.1778000 0.0069271 0.0711000
v -0.1778000 0.0037521 0.0766000
v -0.1778000 0.0005771 0.0774500
v -0.1778000 -0.0025979 0.0766000
v -0.1778000 -0.0049221 0.0742800
v -0.1778000 -0.0057729 0.0711000
v -0.1778000 -0.0057729 0.0006000
v -0.2289950 0.0060764 0.0672900
v -0.2289950 0.0069271 0.0641100
v -0.2289950 0.0037521 0.0696100
v -0.2289950 0.0005771 0.0704600
v -0.2289950 -0.0025979 0.0696100
v -0.2289950 -0.0049221 0.0672900
v -0.2289950 -0.0057729 0.0641100
v -0.2289950 -0.0057729 0.0006000
v -0.2801910 0.0060764 0.0571100
v -0.2801910 0.0069271 0.0539400
v -0.2801910 0.0037521 0.0594400
v -0.2801910 0.0005771 0.0602900
v -0.2801910 -0.0025979 0.0594400
v -0.2801910 -0.0049221 0.0571100
v -0.2801910 -0.0057729 0.0539400
v -0.2801910 -0.0057729 0.0006000
v -0.3313860 0.0060764 0.0433400
v -0.3313860 0.0069271 0.0401700
v -0.3313860 0.0037521 0.0456700
v -0.3313860 0.0005771 0.0465200
v -0.3313860 -0.0025979 0.0456700
v -0.3313860 -0.0049221 0.0433400
v -0.3313860 -0.0057729 0.0401700
v -0.3313860 -0.0057729 0.0006000
v -0.3821860 0.0060764 0.0248200
v -0.3821860 0.0069271 0.0216500
v -0.3821860 0.0037521 0.0271500
v -0.3821860 0.0005771 0.0280000
v -0.3821860 -0.0025979 0.0271500
v -0.3821860 -0.0049221 0.0248200
v -0.3821860 -0.0057729 0.0216500
v -0.3821860 -0.0057729 0.0006000
v 0.0190500 -0.0049221 0.0101200
v 0.0190500 -0.0057729 0.0069500
v 0.0190500 -0.0025979 0.0124500
v 0.0190500 0.0005771 0.0133000
v 0.0190500 0.0037521 0.0124500
v 0.0190500 0.0060764 0.0101200
v 0.0190500 0.0069271 0.0069500
v 0.0254000 0.0069271 0.0196500
v 0.0254000 0.0060764 0.0228200
v 0.0254000 0.0037521 0.0251500
v 0.0254000 0.0005771 0.0260000
v 0.0254000 -0.0025979 0.0251500
v 0.0254000 -0.0049221 0.0228200
v 0.0254000 -0.0057729 0.0196500
v 0.0254000 -0.0057729 0.0006000
v 0.0190500 -0.0057729 0.0006000
v 0.0381000 0.0069271 0.0450500
v 0.0381000 0.0060764 0.0482200
v 0.0381000 0.0037521 0.0505500
v 0.0381000 0.0005771 0.0514000
v 0.0381000 -0.0025979 0.0505500
v 0.0381000 -0.0049221 0.0482200
v 0.0381000 -0.0057729 0.0450500
v 0.0381000 -0.0057729 0.0006000
v 0.0571500 0.0069271 0.0577500
v 0.0571500 0.0060764 0.0609200
v 0.0571500 0.0037521 0.0632500
v 0.0571500 0.0005771 0.0641000
v 0.0571500 -0.0025979 0.0632500
v 0.0571500 -0.0049221 0.0609200
v 0.0571500 -0.0057729 0.0577500
v 0.0571500 -0.0057729 0.0006000
v 0.0762000 0.0069271 0.0641000
v 0.0762000 0.0060764 0.0672700
v 0.0762000 0.0037521 0.0696000
v 0.0762000 0.0005771 0.0704500
v 0.0762000 -0.0025979 0.0696000
v 0.0762000 -0.0049221 0.0672700
v 0.0762000 -0.0057729 0.0641000
v 0.0762000 -0.0057729 0.0006000
v 0.1016000 0.0069271 0.0704500
v 0.1016000 0.0060764 0.0736200
v 0.1016000 0.0037521 0.0759500
v 0.1016000 0.0005771 0.0768000
v 0.1016000 -0.0025979 0.0759500
v 0.1016000 -0.0049221 0.0736200
v 0.1016000 -0.0057729 0.0704500
v 0.1016000 -0.0057729 0.0006000
v 0.1397000 0.0069271 0.0738800
v 0.1397000 0.0060764 0.0770600
v 0.1397000 0.0037521 0.0793800
v 0.1397000 0.0005771 0.0802300
v 0.1397000 -0.0025979 0.0793800
v 0.1397000 -0.0049221 0.0770600
v 0.1397000 -0.0057729 0.0738800
v 0.1397000 -0.0057729 0.0006000
v 0.1778000 0.0069271 0.0711000
v 0.1778000 0.0060764 0.0742800
v 0.1778000 0.0037521 0.0766000
v 0.1778000 0.0005771 0.0774500
v 0.1778000 -0.0025979 0.0766000
v 0.1778000 -0.0049221 0.0742800
v 0.1778000 -0.0057729 0.0711000
v 0.1778000 -0.0057729 0.0006000
v 0.2289950 0.0069271 0.0641100
v 0.2289950 0.0060764 0.0672900
v 0.2289950 0.0037521 0.0696100
v 0.2289950 0.0005771 0.0704600
v 0.2289950 -0.0025979 0.0696100
v 0.2289950 -0.0049221 0.0672900
v 0.2289950 -0.0057729 0.0641100
v 0.2289950 -0.0057729 0.0006000
v 0.2801910 0.0069271 0.0539400
v 0.2801910 0.0060764 0.0571100
v 0.2801910 0.0037521 0.0594400
v 0.2801910 0.0005771 0.0602900
v 0.2801910 -0.0025979 0.0594400
v 0.2801910 -0.0049221 0.0571100
v 0.2801910 -0.0057729 0.0539400
v 0.2801910 -0.0057729 0.0006000
v 0.3313860 0.0069271 0.0401700
v 0.3313860 0.0060764 0.0433400
v 0.3313860 0.0037521 0.0456700
v 0.3313860 0.0005771 0.0465200
v 0.3313860 -0.0025979 0.0456700
v 0.3313860 -0.0049221 0.0433400
v 0.3313860 -0.0057729 0.0401700
v 0.3313860 -0.0057729 0.0006000
v 0.3821860 0.0069271 0.0216500
v 0.3821860 0.0060764 0.0248200
v 0.3821860 0.0037521 0.0271500
v 0.3821860 0.0005771 0.0280000
v 0.3821860 -0.0025979 0.0271500
v 0.3821860 -0.0049221 0.0248200
v 0.3821860 -0.0057729 0.0216500
v 0.3821860 -0.0057729 0.0006000
v -0.0254000 0.0069271 0.0006000
v -0.0381000 0.0069271 0.0006000
v -0.0571500 0.0069271 0.0006000
v -0.0762000 0.0069271 0.0006000
v -0.1016000 0.0069271 0.0006000
v -0.1397000 0.0069271 0.0006000
v -0.1778000 0.0069271 0.0006000
v -0.2289950 0.0069271 0.0006000
v -0.2801910 0.0069271 0.0006000
v -0.3313860 0.0069271 0.0006000
v -0.3821860 0.0069271 0.0006000
v 0.0190500 0.0069271 0.0006000
v 0.0254000 0.0069271 0.0006000
v 0.0381000 0.0069271 0.0006000
v 0.0571500 0.0069271 0.0006000
v 0.0762000 0.0069271 0.0006000
v 0.1016000 0.0069271 0.0006000
v 0.1397000 0.0069271 0.0006000
v 0.1778000 0.0069271 0.0006000
v 0.2289950 0.0069271 0.0006000
v 0.2801910 0.0069271 0.0006000
v 0.3313860 0.0069271 0.0006000
v 0.3821860 0.0069271 0.0006000
vt 0.8207830 0.0770410
vt 0.8222550 0.0770410
vt 0.8222550 0.0587580
vt 0.8207830 0.0587580
vt 0.8222550 0.0770410
vt 0.8233370 0.0770410
vt 0.8233370 0.0587580
vt 0.8222550 0.0587580
vt 0.8233370 0.0770410
vt 0.8237320 0.0770410
vt 0.8237320 0.0587580
vt 0.8233370 0.0587580
vt 0.8237320 0.0770410
vt 0.8233370 0.0770410
vt 0.8233370 0.0587580
vt 0.8237320 0.0587580
vt 0.8233370 0.0770410
vt 0.8222550 0.0770410
vt 0.8222550 0.0587580
vt 0.8233370 0.0587580
vt 0.8222550 0.0770410
vt 0.8207830 0.0770410
vt 0.8207830 0.0587580
vt 0.8222550 0.0587580
vt 0.8207830 0.0587580
vt 0.8207830 0.0770410
vt 0.8178330 0.0770410
vt 0.8178330 0.0587580
vt 0.8207830 0.0770410
vt 0.8207830 0.0587580
vt 0.8178330 0.0587580
vt 0.8178330 0.0770410
vt 0.8207830 0.0770410
vt 0.8222550 0.0770410
vt 0.8281530 0.0831350
vt 0.8266810 0.0831350
vt 0.8222550 0.0770410
vt 0.8233370 0.0770410
vt 0.8292350 0.0831350
vt 0.8281530 0.0831350
vt 0.8233370 0.0770410
vt 0.8237320 0.0770410
vt 0.8296300 0.0831350
vt 0.8292350 0.0831350
vt 0.8237320 0.0770410
vt 0.8233370 0.0770410
vt 0.8292350 0.0831350
vt 0.8296300 0.0831350
vt 0.8233370 0.0770410
vt 0.8222550 0.0770410
vt 0.8281530 0.0831350
vt 0.8292350 0.0831350
vt 0.8222550 0.0770410
vt 0.8207830 0.0770410
vt 0.8266810 0.0831350
vt 0.8281530 0.0831350
vt 0.8207830 0.0770410
vt 0.8178330 0.0770410
vt 0.8178330 0.0831350
vt 0.8266810 0.0831350
vt 0.8266810 0.0831350
vt 0.8281530 0.0831350
vt 0.8399500 0.0953240
vt 0.8384780 0.0953240
vt 0.8281530 0.0831350
vt 0.8292350 0.0831350
vt 0.8410320 0.0953240
vt 0.8399500 0.0953240
vt 0.8292350 0.0831350
vt 0.8296300 0.0831350
vt 0.8414270 0.0953240
vt 0.8410320 0.0953240
vt 0.8296300 0.0831350
vt 0.8292350 0.0831350
vt 0.8410320 0.0953240
vt 0.8414270 0.0953240
vt 0.8292350 0.0831350
vt 0.8281530 0.0831350
vt 0.8399500 0.0953240
vt 0.8410320 0.0953240
vt 0.8281530 0.0831350
vt 0.8266810 0.0831350
vt 0.8384780 0.0953240
vt 0.8399500 0.0953240
vt 0.8266810 0.0831350
vt 0.8178330 0.0831350
vt 0.8178330 0.0953240
vt 0.8384780 0.0953240
vt 0.8384780 0.0953240
vt 0.8399500 0.0953240
vt 0.8458490 0.1136070
vt 0.8443760 0.1136070
vt 0.8399500 0.0953240
vt 0.8410320 0.0953240
vt 0.8469310 0.1136070
vt 0.8458490 0.1136070
vt 0.8410320 0.0953240
vt 0.8414270 0.0953240
vt 0.8473250 0.1136070
vt 0.8469310 0.1136070
vt 0.8414270 0.0953240
vt 0.8410320 0.0953240
vt 0.8469310 0.1136070
vt 0.8473250 0.1136070
vt 0.8410320 0.0953240
vt 0.8399500 0.0953240
vt 0.8458490 0.1136070
vt 0.8469310 0.1136070
vt 0.8399500 0.0953240
vt 0.8384780 0.0953240
vt 0.8443760 0.1136070
vt 0.8458490 0.1136070
vt 0.8384780 0.0953240
vt 0.8178330 0.0953240
vt 0.8178330 0.1136070
vt 0.8443760 0.1136070
vt 0.8443760 0.1136070
vt 0.8458490 0.1136070
vt 0.8487980 0.1318900
vt 0.8473250 0.1318900
vt 0.8458490 0.1136070
vt 0.8469310 0.1136070
vt 0.8498800 0.1318900
vt 0.8487980 0.1318900
vt 0.8469310 0.1136070
vt 0.8473250 0.1136070
vt 0.8502750 0.1318900
vt 0.8498800 0.1318900
vt 0.8473250 0.1136070
vt 0.8469310 0.1136070
vt 0.8498800 0.1318900
vt 0.8502750 0.1318900
vt 0.8469310 0.1136070
vt 0.8458490 0.1136070
vt 0.8487980 0.1318900
vt 0.8498800 0.1318900
vt 0.8458490 0.1136070
vt 0.8443760 0.1136070
vt 0.8473250 0.1318900
vt 0.8487980 0.1318900
vt 0.8443760 0.1136070
vt 0.8178330 0.1136070
vt 0.8178330 0.1318900
vt 0.8473250 0.1318900
vt 0.8473250 0.1318900
vt 0.8487980 0.1318900
vt 0.8517470 0.1562670
vt 0.8502750 0.1562670
vt 0.8487980 0.1318900
vt 0.8498800 0.1318900
vt 0.8528290 0.1562670
vt 0.8517470 0.1562670
vt 0.8498800 0.1318900
vt 0.8502750 0.1318900
vt 0.8532240 0.1562670
vt 0.8528290 0.1562670
vt 0.8502750 0.1318900
vt 0.8498800 0.1318900
vt 0.8528290 0.1562670
vt 0.8532240 0.1562670
vt 0.8498800 0.1318900
vt 0.8487980 0.1318900
vt 0.8517470 0.1562670
vt 0.8528290 0.1562670
vt 0.8487980 0.1318900
vt 0.8473250 0.1318900
vt 0.8502750 0.1562670
vt 0.8517470 0.1562670
vt 0.8473250 0.1318900
vt 0.8178330 0.1318900
vt 0.8178330 0.1562670
vt 0.8502750 0.1562670
vt 0.8502750 0.1562670
vt 0.8517470 0.1562670
vt 0.8533440 0.1928330
vt 0.8518680 0.1928330
vt 0.8517470 0.1562670
vt 0.8528290 0.1562670
vt 0.8544220 0.1928330
vt 0.8533440 0.1928330
vt 0.8528290 0.1562670
vt 0.8532240 0.1562670
vt 0.8548170 0.1928330
vt 0.8544220 0.1928330
vt 0.8532240 0.1562670
vt 0.8528290 0.1562670
vt 0.8544220 0.1928330
vt 0.8548170 0.1928330
vt 0.8528290 0.1562670
vt 0.8517470 0.1562670
vt 0.8533440 0.1928330
vt 0.8544220 0.1928330
vt 0.8517470 0.1562670
vt 0.8502750 0.1562670
vt 0.8518680 0.1928330
vt 0.8533440 0.1928330
vt 0.8502750 0.1562670
vt 0.8178330 0.1562670
vt 0.8178330 0.1928330
vt 0.8518680 0.1928330
vt 0.8518680 0.1928330
vt 0.8533440 0.1928330
vt 0.8520530 0.2294000
vt 0.8505760 0.2294000
vt 0.8533440 0.1928330
vt 0.8544220 0.1928330
vt 0.8531310 0.2294000
vt 0.8520530 0.2294000
vt 0.8544220 0.1928330
vt 0.8548170 0.1928330
vt 0.8535260 0.2294000
vt 0.8531310 0.2294000
vt 0.8548170 0.1928330
vt 0.8544220 0.1928330
vt 0.8531310 0.2294000
vt 0.8535260 0.2294000
vt 0.8544220 0.1928330
vt 0.8533440 0.1928330
vt 0.8520530 0.2294000
vt 0.8531310 0.2294000
vt 0.8533440 0.1928330
vt 0.8518680 0.1928330
vt 0.8505760 0.2294000
vt 0.8520530 0.2294000
vt 0.8518680 0.1928330
vt 0.8178330 0.1928330
vt 0.8178330 0.2294000
vt 0.8505760 0.2294000
vt 0.8505760 0.2294000
vt 0.8520530 0.2294000
vt 0.8488070 0.2785330
vt 0.8473300 0.2785330
vt 0.8520530 0.2294000
vt 0.8531310 0.2294000
vt 0.8498840 0.2785330
vt 0.8488070 0.2785330
vt 0.8531310 0.2294000
vt 0.8535260 0.2294000
vt 0.8502790 0.2785330
vt 0.8498840 0.2785330
vt 0.8535260 0.2294000
vt 0.8531310 0.2294000
vt 0.8498840 0.2785330
vt 0.8502790 0.2785330
vt 0.8531310 0.2294000
vt 0.8520530 0.2294000
vt 0.8488070 0.2785330
vt 0.8498840 0.2785330
vt 0.8520530 0.2294000
vt 0.8505760 0.2294000
vt 0.8473300 0.2785330
vt 0.8488070 0.2785330
vt 0.8505760 0.2294000
vt 0.8178330 0.2294000
vt 0.8178330 0.2785330
vt 0.8473300 0.2785330
vt 0.8473300 0.2785330
vt 0.8488070 0.2785330
vt 0.8440790 0.3276680
vt 0.8426070 0.3276680
vt 0.8488070 0.2785330
vt 0.8498840 0.2785330
vt 0.8451610 0.3276680
vt 0.8440790 0.3276680
vt 0.8498840 0.2785330
vt 0.8502790 0.2785330
vt 0.8455560 0.3276680
vt 0.8451610 0.3276680
vt 0.8502790 0.2785330
vt 0.8498840 0.2785330
vt 0.8451610 0.3276680
vt 0.8455560 0.3276680
vt 0.8498840 0.2785330
vt 0.8488070 0.2785330
vt 0.8440790 0.3276680
vt 0.8451610 0.3276680
vt 0.8488070 0.2785330
vt 0.8473300 0.2785330
vt 0.8426070 0.3276680
vt 0.8440790 0.3276680
vt 0.8473300 0.2785330
vt 0.8178330 0.2785330
vt 0.8178330 0.3276680
vt 0.8426070 0.3276680
vt 0.8426070 0.3276680
vt 0.8440790 0.3276680
vt 0.8376840 0.3768020
vt 0.8362110 0.3768020
vt 0.8440790 0.3276680
vt 0.8451610 0.3276680
vt 0.8387660 0.3768020
vt 0.8376840 0.3768020
vt 0.8451610 0.3276680
vt 0.8455560 0.3276680
vt 0.8391610 0.3768020
vt 0.8387660 0.3768020
vt 0.8455560 0.3276680
vt 0.8451610 0.3276680
vt 0.8387660 0.3768020
vt 0.8391610 0.3768020
vt 0.8451610 0.3276680
vt 0.8440790 0.3276680
vt 0.8376840 0.3768020
vt 0.8387660 0.3768020
vt 0.8440790 0.3276680
vt 0.8426070 0.3276680
vt 0.8362110 0.3768020
vt 0.8376840 0.3768020
vt 0.8426070 0.3276680
vt 0.8178330 0.3276680
vt 0.8178330 0.3768020
vt 0.8362110 0.3768020
vt 0.8362110 0.3768020
vt 0.8376840 0.3768020
vt 0.8290820 0.4255570
vt 0.8276100 0.4255570
vt 0.8376840 0.3768020
vt 0.8387660 0.3768020
vt 0.8301640 0.4255570
vt 0.8290820 0.4255570
vt 0.8387660 0.3768020
vt 0.8391610 0.3768020
vt 0.8305590 0.4255570
vt 0.8301640 0.4255570
vt 0.8391610 0.3768020
vt 0.8387660 0.3768020
vt 0.8301640 0.4255570
vt 0.8305590 0.4255570
vt 0.8387660 0.3768020
vt 0.8376840 0.3768020
vt 0.8290820 0.4255570
vt 0.8301640 0.4255570
vt 0.8376840 0.3768020
vt 0.8362110 0.3768020
vt 0.8276100 0.4255570
vt 0.8290820 0.4255570
vt 0.8362110 0.3768020
vt 0.8178330 0.3768020
vt 0.8178330 0.4255570
vt 0.8276100 0.4255570
vt 0.8207840 0.0587600
vt 0.8222560 0.0587600
vt 0.8222560 0.0770430
vt 0.8207840 0.0770430
vt 0.8222560 0.0587600
vt 0.8233380 0.0587600
vt 0.8233380 0.0770430
vt 0.8222560 0.0770430
vt 0.8233380 0.0587600
vt 0.8237330 0.0587600
vt 0.8237330 0.0770430
vt 0.8233380 0.0770430
vt 0.8237330 0.0587600
vt 0.8233380 0.0587600
vt 0.8233380 0.0770430
vt 0.8237330 0.0770430
vt 0.8233380 0.0587600
vt 0.8222560 0.0587600
vt 0.8222560 0.0770430
vt 0.8233380 0.0770430
vt 0.8222560 0.0587600
vt 0.8207840 0.0587600
vt 0.8207840 0.0770430
vt 0.8222560 0.0770430
vt 0.8266820 0.0831370
vt 0.8281540 0.0831370
vt 0.8222560 0.0770430
vt 0.8207840 0.0770430
vt 0.8281540 0.0831370
vt 0.8292370 0.0831370
vt 0.8233380 0.0770430
vt 0.8222560 0.0770430
vt 0.8292370 0.0831370
vt 0.8296310 0.0831370
vt 0.8237330 0.0770430
vt 0.8233380 0.0770430
vt 0.8296310 0.0831370
vt 0.8292370 0.0831370
vt 0.8233380 0.0770430
vt 0.8237330 0.0770430
vt 0.8292370 0.0831370
vt 0.8281540 0.0831370
vt 0.8222560 0.0770430
vt 0.8233380 0.0770430
vt 0.8281540 0.0831370
vt 0.8266820 0.0831370
vt 0.8207840 0.0770430
vt 0.8222560 0.0770430
vt 0.8266820 0.0831370
vt 0.8178340 0.0831370
vt 0.8178340 0.0770430
vt 0.8207840 0.0770430
vt 0.8384790 0.0953260
vt 0.8399510 0.0953260
vt 0.8281540 0.0831370
vt 0.8266820 0.0831370
vt 0.8399510 0.0953260
vt 0.8410330 0.0953260
vt 0.8292370 0.0831370
vt 0.8281540 0.0831370
vt 0.8410330 0.0953260
vt 0.8414280 0.0953260
vt 0.8296310 0.0831370
vt 0.8292370 0.0831370
vt 0.8414280 0.0953260
vt 0.8410330 0.0953260
vt 0.8292370 0.0831370
vt 0.8296310 0.0831370
vt 0.8410330 0.0953260
vt 0.8399510 0.0953260
vt 0.8281540 0.0831370
vt 0.8292370 0.0831370
vt 0.8399510 0.0953260
vt 0.8384790 0.0953260
vt 0.8266820 0.0831370
vt 0.8281540 0.0831370
vt 0.8384790 0.0953260
vt 0.8178340 0.0953260
vt 0.8178340 0.0831370
vt 0.8266820 0.0831370
vt 0.8443770 0.1136090
vt 0.8458490 0.1136090
vt 0.8399510 0.0953260
vt 0.8384790 0.0953260
vt 0.8458490 0.1136090
vt 0.8469320 0.1136090
vt 0.8410330 0.0953260
vt 0.8399510 0.0953260
vt 0.8469320 0.1136090
vt 0.8473260 0.1136090
vt 0.8414280 0.0953260
vt 0.8410330 0.0953260
vt 0.8473260 0.1136090
vt 0.8469320 0.1136090
vt 0.8410330 0.0953260
vt 0.8414280 0.0953260
vt 0.8469320 0.1136090
vt 0.8458490 0.1136090
vt 0.8399510 0.0953260
vt 0.8410330 0.0953260
vt 0.8458490 0.1136090
vt 0.8443770 0.1136090
vt 0.8384790 0.0953260
vt 0.8399510 0.0953260
vt 0.8443770 0.1136090
vt 0.8178340 0.1136090
vt 0.8178340 0.0953260
vt 0.8384790 0.0953260
vt 0.8473260 0.1318920
vt 0.8487990 0.1318920
vt 0.8458490 0.1136090
vt 0.8443770 0.1136090
vt 0.8487990 0.1318920
vt 0.8498810 0.1318920
vt 0.8469320 0.1136090
vt 0.8458490 0.1136090
vt 0.8498810 0.1318920
vt 0.8502760 0.1318920
vt 0.8473260 0.1136090
vt 0.8469320 0.1136090
vt 0.8502760 0.1318920
vt 0.8498810 0.1318920
vt 0.8469320 0.1136090
vt 0.8473260 0.1136090
vt 0.8498810 0.1318920
vt 0.8487990 0.1318920
vt 0.8458490 0.1136090
vt 0.8469320 0.1136090
vt 0.8487990 0.1318920
vt 0.8473260 0.1318920
vt 0.8443770 0.1136090
vt 0.8458490 0.1136090
vt 0.8473260 0.1318920
vt 0.8178340 0.1318920
vt 0.8178340 0.1136090
vt 0.8443770 0.1136090
vt 0.8502760 0.1562690
vt 0.8517480 0.1562690
vt 0.8487990 0.1318920
vt 0.8473260 0.1318920
vt 0.8517480 0.1562690
vt 0.8528300 0.1562690
vt 0.8498810 0.1318920
vt 0.8487990 0.1318920
vt 0.8528300 0.1562690
vt 0.8532250 0.1562690
vt 0.8502760 0.1318920
vt 0.8498810 0.1318920
vt 0.8532250 0.1562690
vt 0.8528300 0.1562690
vt 0.8498810 0.1318920
vt 0.8502760 0.1318920
vt 0.8528300 0.1562690
vt 0.8517480 0.1562690
vt 0.8487990 0.1318920
vt 0.8498810 0.1318920
vt 0.8517480 0.1562690
vt 0.8502760 0.1562690
vt 0.8473260 0.1318920
vt 0.8487990 0.1318920
vt 0.8502760 0.1562690
vt 0.8178340 0.1562690
vt 0.8178340 0.1318920
vt 0.8473260 0.1318920
vt 0.8518690 0.1928350
vt 0.8533450 0.1928350
vt 0.8517480 0.1562690
vt 0.8502760 0.1562690
vt 0.8533450 0.1928350
vt 0.8544230 0.1928350
vt 0.8528300 0.1562690
vt 0.8517480 0.1562690
vt 0.8544230 0.1928350
vt 0.8548180 0.1928350
vt 0.8532250 0.1562690
vt 0.8528300 0.1562690
vt 0.8548180 0.1928350
vt 0.8544230 0.1928350
vt 0.8528300 0.1562690
vt 0.8532250 0.1562690
vt 0.8544230 0.1928350
vt 0.8533450 0.1928350
vt 0.8517480 0.1562690
vt 0.8528300 0.1562690
vt 0.8533450 0.1928350
vt 0.8518690 0.1928350
vt 0.8502760 0.1562690
vt 0.8517480 0.1562690
vt 0.8518690 0.1928350
vt 0.8178340 0.1928350
vt 0.8178340 0.1562690
vt 0.8502760 0.1562690
vt 0.8505770 0.2294010
vt 0.8520540 0.2294010
vt 0.8533450 0.1928350
vt 0.8518690 0.1928350
vt 0.8520540 0.2294010
vt 0.8531320 0.2294010
vt 0.8544230 0.1928350
vt 0.8533450 0.1928350
vt 0.8531320 0.2294010
vt 0.8535270 0.2294010
vt 0.8548180 0.1928350
vt 0.8544230 0.1928350
vt 0.8535270 0.2294010
vt 0.8531320 0.2294010
vt 0.8544230 0.1928350
vt 0.8548180 0.1928350
vt 0.8531320 0.2294010
vt 0.8520540 0.2294010
vt 0.8533450 0.1928350
vt 0.8544230 0.1928350
vt 0.8520540 0.2294010
vt 0.8505770 0.2294010
vt 0.8518690 0.1928350
vt 0.8533450 0.1928350
vt 0.8505770 0.2294010
vt 0.8178340 0.2294010
vt 0.8178340 0.1928350
vt 0.8518690 0.1928350
vt 0.8473310 0.2785350
vt 0.8488080 0.2785350
vt 0.8520540 0.2294010
vt 0.8505770 0.2294010
vt 0.8488080 0.2785350
vt 0.8498850 0.2785350
vt 0.8531320 0.2294010
vt 0.8520540 0.2294010
vt 0.8498850 0.2785350
vt 0.8502800 0.2785350
vt 0.8535270 0.2294010
vt 0.8531320 0.2294010
vt 0.8502800 0.2785350
vt 0.8498850 0.2785350
vt 0.8531320 0.2294010
vt 0.8535270 0.2294010
vt 0.8498850 0.2785350
vt 0.8488080 0.2785350
vt 0.8520540 0.2294010
vt 0.8531320 0.2294010
vt 0.8488080 0.2785350
vt 0.8473310 0.2785350
vt 0.8505770 0.2294010
vt 0.8520540 0.2294010
vt 0.8473310 0.2785350
vt 0.8178340 0.2785350
vt 0.8178340 0.2294010
vt 0.8505770 0.2294010
vt 0.8426080 0.3276700
vt 0.8440800 0.3276700
vt 0.8488080 0.2785350
vt 0.8473310 0.2785350
vt 0.8440800 0.3276700
vt 0.8451620 0.3276700
vt 0.8498850 0.2785350
vt 0.8488080 0.2785350
vt 0.8451620 0.3276700
vt 0.8455570 0.3276700
vt 0.8502800 0.2785350
vt 0.8498850 0.2785350
vt 0.8455570 0.3276700
vt 0.8451620 0.3276700
vt 0.8498850 0.2785350
vt 0.8502800 0.2785350
vt 0.8451620 0.3276700
vt 0.8440800 0.3276700
vt 0.8488080 0.2785350
vt 0.8498850 0.2785350
vt 0.8440800 0.3276700
vt 0.8426080 0.3276700
vt 0.8473310 0.2785350
vt 0.8488080 0.2785350
vt 0.8426080 0.3276700
vt 0.8178340 0.3276700
vt 0.8178340 0.2785350
vt 0.8473310 0.2785350
vt 0.8362120 0.3768040
vt 0.8376850 0.3768040
vt 0.8440800 0.3276700
vt 0.8426080 0.3276700
vt 0.8376850 0.3768040
vt 0.8387670 0.3768040
vt 0.8451620 0.3276700
vt 0.8440800 0.3276700
vt 0.8387670 0.3768040
vt 0.8391620 0.3768040
vt 0.8455570 0.3276700
vt 0.8451620 0.3276700
vt 0.8391620 0.3768040
vt 0.8387670 0.3768040
vt 0.8451620 0.3276700
vt 0.8455570 0.3276700
vt 0.8387670 0.3768040
vt 0.8376850 0.3768040
vt 0.8440800 0.3276700
vt 0.8451620 0.3276700
vt 0.8376850 0.3768040
vt 0.8362120 0.3768040
vt 0.8426080 0.3276700
vt 0.8440800 0.3276700
vt 0.8362120 0.3768040
vt 0.8178340 0.3768040
vt 0.8178340 0.3276700
vt 0.8426080 0.3276700
vt 0.8276110 0.4255590
vt 0.8290830 0.4255590
vt 0.8376850 0.3768040
vt 0.8362120 0.3768040
vt 0.8290830 0.4255590
vt 0.8301650 0.4255590
vt 0.8387670 0.3768040
vt 0.8376850 0.3768040
vt 0.8301650 0.4255590
vt 0.8305600 0.4255590
vt 0.8391620 0.3768040
vt 0.8387670 0.3768040
vt 0.8305600 0.4255590
vt 0.8301650 0.4255590
vt 0.8387670 0.3768040
vt 0.8391620 0.3768040
vt 0.8301650 0.4255590
vt 0.8290830 0.4255590
vt 0.8376850 0.3768040
vt 0.8387670 0.3768040
vt 0.8290830 0.4255590
vt 0.8276110 0.4255590
vt 0.8362120 0.3768040
vt 0.8376850 0.3768040
vt 0.8276110 0.4255590
vt 0.8178340 0.4255590
vt 0.8178340 0.3768040
vt 0.8362120 0.3768040
vt 0.8178330 0.0770410
vt 0.8207830 0.0770410
vt 0.8266810 0.0831350
vt 0.8178330 0.0831350
vt 0.8178330 0.0831350
vt 0.8266810 0.0831350
vt 0.8384780 0.0953240
vt 0.8178330 0.0953240
vt 0.8178330 0.0953240
vt 0.8384780 0.0953240
vt 0.8443760 0.1136070
vt 0.8178330 0.1136070
vt 0.8178330 0.1136070
vt 0.8443760 0.1136070
vt 0.8473250 0.1318900
vt 0.8178330 0.1318900
vt 0.8178330 0.1318900
vt 0.8473250 0.1318900
vt 0.8502750 0.1562670
vt 0.8178330 0.1562670
vt 0.8178330 0.1562670
vt 0.8502750 0.1562670
vt 0.8518680 0.1928330
vt 0.8178330 0.1928330
vt 0.8178330 0.1928330
vt 0.8518680 0.1928330
vt 0.8505760 0.2294000
vt 0.8178330 0.2294000
vt 0.8178330 0.2294000
vt 0.8505760 0.2294000
vt 0.8473300 0.2785330
vt 0.8178330 0.2785330
vt 0.8178330 0.2785330
vt 0.8473300 0.2785330
vt 0.8426070 0.3276680
vt 0.8178330 0.3276680
vt 0.8178330 0.3276680
vt 0.8426070 0.3276680
vt 0.8362110 0.3768020
vt 0.8178330 0.3768020
vt 0.8178330 0.3768020
vt 0.8362110 0.3768020
vt 0.8276100 0.4255570
vt 0.8178330 0.4255570
vt 0.8178340 0.0770430
vt 0.8207840 0.0770430
vt 0.8207840 0.0587600
vt 0.8178340 0.0587600
vt 0.8178340 0.0587600
vt 0.8207840 0.0587600
vt 0.8207840 0.0770430
vt 0.8178340 0.0770430
vt 0.8178340 0.0831370
vt 0.8266820 0.0831370
vt 0.8207840 0.0770430
vt 0.8178340 0.0770430
vt 0.8178340 0.0953260
vt 0.8384790 0.0953260
vt 0.8266820 0.0831370
vt 0.8178340 0.0831370
vt 0.8178340 0.1136090
vt 0.8443770 0.1136090
vt 0.8384790 0.0953260
vt 0.8178340 0.0953260
vt 0.8178340 0.1318920
vt 0.8473260 0.1318920
vt 0.8443770 0.1136090
vt 0.8178340 0.1136090
vt 0.8178340 0.1562690
vt 0.8502760 0.1562690
vt 0.8473260 0.1318920
vt 0.8178340 0.1318920
vt 0.8178340 0.1928350
vt 0.8518690 0.1928350
vt 0.8502760 0.1562690
vt 0.8178340 0.1562690
vt 0.8178340 0.2294010
vt 0.8505770 0.2294010
vt 0.8518690 0.1928350
vt 0.8178340 0.1928350
vt 0.8178340 0.2785350
vt 0.8473310 0.2785350
vt 0.8505770 0.2294010
vt 0.8178340 0.2294010
vt 0.8178340 0.3276700
vt 0.8426080 0.3276700
vt 0.8473310 0.2785350
vt 0.8178340 0.2785350
vt 0.8178340 0.3768040
vt 0.8362120 0.3768040
vt 0.8426080 0.3276700
vt 0.8178340 0.3276700
vt 0.8178340 0.4255590
vt 0.8276110 0.4255590
vt 0.8362120 0.3768040
vt 0.8178340 0.3768040
vt 0.8178340 0.0587600
vt 0.8178340 0.0587600
vt 0.8178340 0.0770430
vt 0.8178340 0.0770430
vt 0.8178330 0.4255570
vt 0.8276100 0.4255570
vt 0.8276100 0.4255570
vt 0.8178330 0.4255570
vt 0.8301640 0.4255570
vt 0.8305590 0.4255570
vt 0.8301640 0.4255570
vt 0.8290820 0.4255570
vt 0.8301640 0.4255570
vt 0.8301640 0.4255570
vt 0.8290820 0.4255570
vt 0.8276100 0.4255570
vt 0.8290820 0.4255570
vt 0.8290820 0.4255570
vt 0.8276100 0.4255570
vt 0.8178330 0.3768020
vt 0.8178330 0.4255570
vt 0.8178330 0.4255570
vt 0.8178330 0.3768020
vt 0.8178330 0.3276680
vt 0.8178330 0.3768020
vt 0.8178330 0.3768020
vt 0.8178330 0.3276680
vt 0.8178330 0.2785330
vt 0.8178330 0.3276680
vt 0.8178330 0.3276680
vt 0.8178330 0.2785330
vt 0.8178330 0.2294000
vt 0.8178330 0.2785330
vt 0.8178330 0.2785330
vt 0.8178330 0.2294000
vt 0.8178330 0.1928330
vt 0.8178330 0.2294000
vt 0.8178330 0.2294000
vt 0.8178330 0.1928330
vt 0.8178330 0.1562670
vt 0.8178330 0.1928330
vt 0.8178330 0.1928330
vt 0.8178330 0.1562670
vt 0.8178330 0.1318900
vt 0.8178330 0.1562670
vt 0.8178330 0.1562670
vt 0.8178330 0.1318900
vt 0.8178330 0.1136070
vt 0.8178330 0.1318900
vt 0.8178330 0.1318900
vt 0.8178330 0.1136070
vt 0.8178330 0.0953240
vt 0.8178330 0.1136070
vt 0.8178330 0.1136070
vt 0.8178330 0.0953240
vt 0.8178330 0.0831350
vt 0.8178330 0.0953240
vt 0.8178330 0.0953240
vt 0.8178330 0.0831350
vt 0.8178330 0.0770410
vt 0.8178330 0.0831350
vt 0.8178330 0.0831350
vt 0.8178330 0.0770410
vt 0.8178330 0.0587580
vt 0.8178330 0.0770410
vt 0.8178330 0.0770410
vt 0.8178330 0.0587580
vt 0.8178340 0.0770430
vt 0.8178340 0.0831370
vt 0.8178340 0.0831370
vt 0.8178340 0.0770430
vt 0.8178340 0.0831370
vt 0.8178340 0.0953260
vt 0.8178340 0.0953260
vt 0.8178340 0.0831370
vt 0.8178340 0.0953260
vt 0.8178340 0.1136090
vt 0.8178340 0.1136090
vt 0.8178340 0.0953260
vt 0.8178340 0.1136090
vt 0.8178340 0.1318920
vt 0.8178340 0.1318920
vt 0.8178340 0.1136090
vt 0.8178340 0.1318920
vt 0.8178340 0.1562690
vt 0.8178340 0.1562690
vt 0.8178340 0.1318920
vt 0.8178340 0.1562690
vt 0.8178340 0.1928350
vt 0.8178340 0.1928350
vt 0.8178340 0.1562690
vt 0.8178340 0.1928350
vt 0.8178340 0.2294010
vt 0.8178340 0.2294010
vt 0.8178340 0.1928350
vt 0.8178340 0.2294010
vt 0.8178340 0.2785350
vt 0.8178340 0.2785350
vt 0.8178340 0.2294010
vt 0.8178340 0.2785350
vt 0.8178340 0.3276700
vt 0.8178340 0.3276700
vt 0.8178340 0.2785350
vt 0.8178340 0.3276700
vt 0.8178340 0.3768040
vt 0.8178340 0.3768040
vt 0.8178340 0.3276700
vt 0.8178340 0.3768040
vt 0.8178340 0.4255590
vt 0.8178340 0.4255590
vt 0.8178340 0.3768040
vt 0.8178340 0.4255590
vt 0.8276110 0.4255590
vt 0.8276110 0.4255590
vt 0.8178340 0.4255590
vt 0.8276110 0.4255590
vt 0.8290830 0.4255590
vt 0.8290830 0.4255590
vt 0.8276110 0.4255590
vt 0.8290830 0.4255590
vt 0.8301650 0.4255590
vt 0.8301650 0.4255590
vt 0.8290830 0.4255590
vt 0.8301650 0.4255590
vt 0.8305600 0.4255590
vt 0.8301650 0.4255590
usemtl tex_mat1
f 1/1 2/2 3/3 4/4
f 2/5 5/6 6/7 3/8
f 5/9 7/10 8/11 6/12
f 7/13 9/14 10/15 8/16
f 9/17 11/18 12/19 10/20
f 11/21 13/22 14/23 12/24
f 14/25 13/26 15/27 16/28
f 1/29 4/30 17/31 18/32
f 13/33 11/34 19/35 20/36
f 11/37 9/38 21/39 19/40
f 9/41 7/42 22/43 21/44
f 7/45 5/46 23/47 22/48
f 5/49 2/50 24/51 23/52
f 2/53 1/54 25/55 24/56
f 1/57 18/58 26/59 25/60
f 20/61 19/62 27/63 28/64
f 19/65 21/66 29/67 27/68
f 21/69 22/70 30/71 29/72
f 22/73 23/74 31/75 30/76
f 23/77 24/78 32/79 31/80
f 24/81 25/82 33/83 32/84
f 25/85 26/86 34/87 33/88
f 28/89 27/90 35/91 36/92
f 27/93 29/94 37/95 35/96
f 29/97 30/98 38/99 37/100
f 30/101 31/102 39/103 38/104
f 31/105 32/106 40/107 39/108
f 32/109 33/110 41/111 40/112
f 33/113 34/114 42/115 41/116
f 36/117 35/118 43/119 44/120
f 35/121 37/122 45/123 43/124
f 37/125 38/126 46/127 45/128
f 38/129 39/130 47/131 46/132
f 39/133 40/134 48/135 47/136
f 40/137 41/138 49/139 48/140
f 41/141 42/142 50/143 49/144
f 44/145 43/146 51/147 52/148
f 43/149 45/150 53/151 51/152
f 45/153 46/154 54/155 53/156
f 46/157 47/158 55/159 54/160
f 47/161 48/162 56/163 55/164
f 48/165 49/166 57/167 56/168
f 49/169 50/170 58/171 57/172
f 52/173 51/174 59/175 60/176
f 51/177 53/178 61/179 59/180
f 53/181 54/182 62/183 61/184
f 54/185 55/186 63/187 62/188
f 55/189 56/190 64/191 63/192
f 56/193 57/194 65/195 64/196
f 57/197 58/198 66/199 65/200
f 60/201 59/202 67/203 68/204
f 59/205 61/206 69/207 67/208
f 61/209 62/210 70/211 69/212
f 62/213 63/214 71/215 70/216
f 63/217 64/218 72/219 71/220
f 64/221 65/222 73/223 72/224
f 65/225 66/226 74/227 73/228
f 68/229 67/230 75/231 76/232
f 67/233 69/234 77/235 75/236
f 69/237 70/238 78/239 77/240
f 70/241 71/242 79/243 78/244
f 71/245 72/246 80/247 79/248
f 72/249 73/250 81/251 80/252
f 73/253 74/254 82/255 81/256
f 76/257 75/258 83/259 84/260
f 75/261 77/262 85/263 83/264
f 77/265 78/266 86/267 85/268
f 78/269 79/270 87/271 86/272
f 79/273 80/274 88/275 87/276
f 80/277 81/278 89/279 88/280
f 81/281 82/282 90/283 89/284
f 84/285 83/286 91/287 92/288
f 83/289 85/290 93/291 91/292
f 85/293 86/294 94/295 93/296
f 86/297 87/298 95/299 94/300
f 87/301 88/302 96/303 95/304
f 88/305 89/306 97/307 96/308
f 89/309 90/310 98/311 97/312
f 92/313 91/314 99/315 100/316
f 91/317 93/318 101/319 99/320
f 93/321 94/322 102/323 101/324
f 94/325 95/326 103/327 102/328
f 95/329 96/330 104/331 103/332
f 96/333 97/334 105/335 104/336
f 97/337 98/338 106/339 105/340
f 4/341 3/342 107/343 108/344
f 3/345 6/346 109/347 107/348
f 6/349 8/350 110/351 109/352
f 8/353 10/354 111/355 110/356
f 10/357 12/358 112/359 111/360
f 12/361 14/362 113/363 112/364
f 114/365 115/366 112/367 113/368
f 115/369 116/370 111/371 112/372
f 116/373 117/374 110/375 111/376
f 117/377 118/378 109/379 110/380
f 118/381 119/382 107/383 109/384
f 119/385 120/386 108/387 107/388
f 120/389 121/390 122/391 108/392
f 123/393 124/394 115/395 114/396
f 124/397 125/398 116/399 115/400
f 125/401 126/402 117/403 116/404
f 126/405 127/406 118/407 117/408
f 127/409 128/410 119/411 118/412
f 128/413 129/414 120/415 119/416
f 129/417 130/418 121/419 120/420
f 131/421 132/422 124/423 123/424
f 132/425 133/426 125/427 124/428
f 133/429 134/430 126/431 125/432
f 134/433 135/434 127/435 126/436
f 135/437 136/438 128/439 127/440
f 136/441 137/442 129/443 128/444
f 137/445 138/446 130/447 129/448
f 139/449 140/450 132/451 131/452
f 140/453 141/454 133/455 132/456
f 141/457 142/458 134/459 133/460
f 142/461 143/462 135/463 134/464
f 143/465 144/466 136/467 135/468
f 144/469 145/470 137/471 136/472
f 145/473 146/474 138/475 137/476
f 147/477 148/478 140/479 139/480
f 148/481 149/482 141/483 140/484
f 149/485 150/486 142/487 141/488
f 150/489 151/490 143/491 142/492
f 151/493 152/494 144/495 143/496
f 152/497 153/498 145/499 144/500
f 153/501 154/502 146/503 145/504
f 155/505 156/506 148/507 147/508
f 156/509 157/510 149/511 148/512
f 157/513 158/514 150/515 149/516
f 158/517 159/518 151/519 150/520
f 159/521 160/522 152/523 151/524
f 160/525 161/526 153/527 152/528
f 161/529 162/530 154/531 153/532
f 163/533 164/534 156/535 155/536
f 164/537 165/538 157/539 156/540
f 165/541 166/542 158/543 157/544
f 166/545 167/546 159/547 158/548
f 167/549 168/550 160/551 159/552
f 168/553 169/554 161/555 160/556
f 169/557 170/558 162/559 161/560
f 171/561 172/562 164/563 163/564
f 172/565 173/566 165/567 164/568
f 173/569 174/570 166/571 165/572
f 174/573 175/574 167/575 166/576
f 175/577 176/578 168/579 167/580
f 176/581 177/582 169/583 168/584
f 177/585 178/586 170/587 169/588
f 179/589 180/590 172/591 171/592
f 180/593 181/594 173/595 172/596
f 181/597 182/598 174/599 173/600
f 182/601 183/602 175/603 174/604
f 183/605 184/606 176/607 175/608
f 184/609 185/610 177/611 176/612
f 185/613 186/614 178/615 177/616
f 187/617 188/618 180/619 179/620
f 188/621 189/622 181/623 180/624
f 189/625 190/626 182/627 181/628
f 190/629 191/630 183/631 182/632
f 191/633 192/634 184/635 183/636
f 192/637 193/638 185/639 184/640
f 193/641 194/642 186/643 185/644
f 195/645 196/646 188/647 187/648
f 196/649 197/650 189/651 188/652
f 197/653 198/654 190/655 189/656
f 198/657 199/658 191/659 190/660
f 199/661 200/662 192/663 191/664
f 200/665 201/666 193/667 192/668
f 201/669 202/670 194/671 193/672
f 15/673 13/674 20/675 203/676
f 203/677 20/678 28/679 204/680
f 204/681 28/682 36/683 205/684
f 205/685 36/686 44/687 206/688
f 206/689 44/690 52/691 207/692
f 207/693 52/694 60/695 208/696
f 208/697 60/698 68/699 209/700
f 209/701 68/702 76/703 210/704
f 210/705 76/706 84/707 211/708
f 211/709 84/710 92/711 212/712
f 212/713 92/714 100/715 213/716
f 214/717 113/718 14/719 16/720
f 17/721 4/722 108/723 122/724
f 215/725 114/726 113/727 214/728
f 216/729 123/730 114/731 215/732
f 217/733 131/734 123/735 216/736
f 218/737 139/738 131/739 217/740
f 219/741 147/742 139/743 218/744
f 220/745 155/746 147/747 219/748
f 221/749 163/750 155/751 220/752
f 222/753 171/754 163/755 221/756
f 223/757 179/758 171/759 222/760
f 224/761 187/762 179/763 223/764
f 225/765 195/766 187/767 224/768
f 16/769 17/770 122/771 214/772
f 213/773 100/774 105/775 106/776
f 101/777 102/778 103/779
f 99/780 101/781 103/782 104/783
f 100/784 99/785 104/786 105/787
f 212/788 213/789 106/790 98/791
f 211/792 212/793 98/794 90/795
f 210/796 211/797 90/798 82/799
f 209/800 210/801 82/802 74/803
f 208/804 209/805 74/806 66/807
f 207/808 208/809 66/810 58/811
f 206/812 207/813 58/814 50/815
f 205/816 206/817 50/818 42/819
f 204/820 205/821 42/822 34/823
f 203/824 204/825 34/826 26/827
f 15/828 203/829 26/830 18/831
f 16/832 15/833 18/834 17/835
f 122/836 121/837 215/838 214/839
f 121/840 130/841 216/842 215/843
f 130/844 138/845 217/846 216/847
f 138/848 146/849 218/850 217/851
f 146/852 154/853 219/854 218/855
f 154/856 162/857 220/858 219/859
f 162/860 170/861 221/862 220/863
f 170/864 178/865 222/866 221/867
f 178/868 186/869 223/870 222/871
f 186/872 194/873 224/874 223/875
f 194/876 202/877 225/878 224/879
f 202/880 201/881 195/882 225/883
f 201/884 200/885 196/886 195/887
f 200/888 199/889 197/890 196/891
f 199/892 198/893 197/894
