# Converted from FlightGear/ArduPilot Rascal AC3D geometry
mtllib rascal.mtl
o L_Aileron
v 0.2104250 -0.0006930 0.0841500
v 0.2104250 -0.0006930 -0.0074720
v 0.0010140 -0.0083080 0.0000070
v 0.0010140 -0.0083080 0.0968500
v 0.4388740 0.0076140 0.0624160
v 0.4388740 0.0076140 -0.0156310
v 0.5975200 0.0133830 0.0345750
v 0.5975200 0.0133830 -0.0212970
v 0.6422000 0.0150080 0.0226510
v 0.5971600 0.0234050 -0.0212840
v 0.6422000 0.0231630 -0.0228930
v 0.2098520 0.0150780 -0.0074520
v 0.0004340 0.0076380 0.0000270
v 0.4383450 0.0221820 -0.0156120
v 0.6422000 0.0150080 -0.0228930
vt 0.3821250 0.4137270
vt 0.3821250 0.3284190
vt 0.4821240 0.3357570
vt 0.4821240 0.4256510
vt 0.2717360 0.3935460
vt 0.2717360 0.3210810
vt 0.3821250 0.3284190
vt 0.3821250 0.4137270
vt 0.1951140 0.3678620
vt 0.1951140 0.3155770
vt 0.2717360 0.3210810
vt 0.2717360 0.3935460
vt 0.1743350 0.3568550
vt 0.1951140 0.3678620
vt 0.1964130 0.3155770
vt 0.1743350 0.3146600
vt 0.3821250 0.3284190
vt 0.3821250 0.4137270
vt 0.4821240 0.4256510
vt 0.4821240 0.3357570
vt 0.2717360 0.3210810
vt 0.2717360 0.3935460
vt 0.3821250 0.4137270
vt 0.3821250 0.3284190
vt 0.1964130 0.3155770
vt 0.1951140 0.3678620
vt 0.2717360 0.3935460
vt 0.2717360 0.3210810
vt 0.1951140 0.3155770
vt 0.1951140 0.3678620
vt 0.1743350 0.3568550
vt 0.1743350 0.3146600
vt 0.4821240 0.3357570
vt 0.4821240 0.3357570
vt 0.4821240 0.4256510
vt 0.4821240 0.3357570
vt 0.3821250 0.3284190
vt 0.3821250 0.3284190
vt 0.4821240 0.3357570
vt 0.3821250 0.3284190
vt 0.2717360 0.3210810
vt 0.2717360 0.3210810
vt 0.3821250 0.3284190
vt 0.2717360 0.3210810
vt 0.1951140 0.3155770
vt 0.1964130 0.3155770
vt 0.2717360 0.3210810
vt 0.1951140 0.3155770
vt 0.1743350 0.3146600
vt 0.1743350 0.3146600
vt 0.1964130 0.3155770
vt 0.1743350 0.3146600
vt 0.1743350 0.3568550
vt 0.1743350 0.3146600
usemtl tex_mat1
f 1/1 2/2 3/3 4/4
f 5/5 6/6 2/7 1/8
f 7/9 8/10 6/11 5/12
f 9/13 7/14 10/15 11/16
f 12/17 1/18 4/19 13/20
f 14/21 5/22 1/23 12/24
f 10/25 7/26 5/27 14/28
f 8/29 7/30 9/31 15/32
f 3/33 13/34 4/35
f 3/36 2/37 12/38 13/39
f 2/40 6/41 14/42 12/43
f 6/44 8/45 10/46 14/47
f 8/48 15/49 11/50 10/51
f 15/52 9/53 11/54
