# Converted from FlightGear/ArduPilot Rascal AC3D geometry
mtllib rascal.mtl
o Prop_Disk
v 0.0000000 -0.2540000 0.0000000
v 0.0495529 -0.2491190 0.0000000
v 0.0000000 0.0000000 0.0000000
v 0.0972016 -0.2346650 0.0000000
v 0.1411150 -0.2111930 0.0000000
v 0.1796050 -0.1796050 0.0000000
v 0.2111930 -0.1411150 0.0000000
v 0.2346650 -0.0972016 0.0000000
v 0.2491190 -0.0495529 0.0000000
v 0.2540000 -0.0000000 0.0000000
v 0.2491190 0.0495529 0.0000000
v 0.2346650 0.0972016 0.0000000
v 0.2111930 0.1411150 0.0000000
v 0.1796050 0.1796050 0.0000000
v 0.1411150 0.2111930 0.0000000
v 0.0972016 0.2346650 0.0000000
v 0.0495529 0.2491190 0.0000000
v 0.0000000 0.2540000 0.0000000
v -0.0495529 0.2491190 0.0000000
v -0.0972016 0.2346650 0.0000000
v -0.1411150 0.2111930 0.0000000
v -0.1796050 0.1796050 0.0000000
v -0.2111930 0.1411150 0.0000000
v -0.2346650 0.0972016 0.0000000
v -0.2491190 0.0495529 0.0000000
v -0.2540000 0.0000000 0.0000000
v -0.2491190 -0.0495529 0.0000000
v -0.2346650 -0.0972016 0.0000000
v -0.2111930 -0.1411150 0.0000000
v -0.1796050 -0.1796050 0.0000000
v -0.1411150 -0.2111930 0.0000000
v -0.0972016 -0.2346650 0.0000000
v -0.0495529 -0.2491190 0.0000000
vt 0.0000000 1.0000000
vt 0.0000000 1.0000000
vt 0.0000000 1.0000000
vt 0.0000000 1.0000000
vt 0.0000000 1.0000000
vt 0.0000000 1.0000000
vt 0.0000000 1.0000000
vt 0.0000000 1.0000000
vt 0.0000000 1.0000000
vt 0.0000000 1.0000000
vt 0.0000000 1.0000000
vt 0.0000000 1.0000000
vt 0.0000000 1.0000000
vt 0.0000000 1.0000000
vt 0.0000000 1.0000000
vt 0.0000000 1.0000000
vt 0.0000000 1.0000000
vt 0.0000000 1.0000000
vt 0.0000000 1.0000000
vt 0.0000000 1.0000000
vt 0.0000000 1.0000000
vt 0.0000000 1.0000000
vt 0.0000000 1.0000000
vt 0.0000000 1.0000000
vt 0.0000000 1.0000000
vt 0.0000000 1.0000000
vt 0.0000000 1.0000000
vt 0.0000000 1.0000000
vt 0.0000000 1.0000000
vt 0.0000000 1.0000000
vt 0.0000000 1.0000000
vt 0.0000000 1.0000000
vt 0.0000000 1.0000000
vt 0.0000000 1.0000000
vt 0.0000000 1.0000000
vt 0.0000000 1.0000000
vt 0.0000000 1.0000000
vt 0.0000000 1.0000000
vt 0.0000000 1.0000000
vt 0.0000000 1.0000000
vt 0.0000000 1.0000000
vt 0.0000000 1.0000000
vt 0.0000000 1.0000000
vt 0.0000000 1.0000000
vt 0.0000000 1.0000000
vt 0.0000000 1.0000000
vt 0.0000000 1.0000000
vt 0.0000000 1.0000000
vt 0.0000000 1.0000000
vt 0.0000000 1.0000000
vt 0.0000000 1.0000000
vt 0.0000000 1.0000000
vt 0.0000000 1.0000000
vt 0.0000000 1.0000000
vt 0.0000000 1.0000000
vt 0.0000000 1.0000000
vt 0.0000000 1.0000000
vt 0.0000000 1.0000000
vt 0.0000000 1.0000000
vt 0.0000000 1.0000000
vt 0.0000000 1.0000000
vt 0.0000000 1.0000000
vt 0.0000000 1.0000000
vt 0.0000000 1.0000000
vt 0.0000000 1.0000000
vt 0.0000000 1.0000000
vt 0.0000000 1.0000000
vt 0.0000000 1.0000000
vt 0.0000000 1.0000000
vt 0.0000000 1.0000000
vt 0.0000000 1.0000000
vt 0.0000000 1.0000000
vt 0.0000000 1.0000000
vt 0.0000000 1.0000000
vt 0.0000000 1.0000000
vt 0.0000000 1.0000000
vt 0.0000000 1.0000000
vt 0.0000000 1.0000000
vt 0.0000000 1.0000000
vt 0.0000000 1.0000000
vt 0.0000000 1.0000000
vt 0.0000000 1.0000000
vt 0.0000000 1.0000000
vt 0.0000000 1.0000000
vt 0.0000000 1.0000000
vt 0.0000000 1.0000000
vt 0.0000000 1.0000000
vt 0.0000000 1.0000000
vt 0.0000000 1.0000000
vt 0.0000000 1.0000000
vt 0.0000000 1.0000000
vt 0.0000000 1.0000000
vt 0.0000000 1.0000000
vt 0.0000000 1.0000000
vt 0.0000000 1.0000000
vt 0.0000000 1.0000000
usemtl mat3
f 1/1 2/2 3/3
f 2/4 4/5 3/6
f 4/7 5/8 3/9
f 5/10 6/11 3/12
f 6/13 7/14 3/15
f 7/16 8/17 3/18
f 8/19 9/20 3/21
f 9/22 10/23 3/24
f 10/25 11/26 3/27
f 11/28 12/29 3/30
f 12/31 13/32 3/33
f 13/34 14/35 3/36
f 14/37 15/38 3/39
f 15/40 16/41 3/42
f 16/43 17/44 3/45
f 17/46 18/47 3/48
f 18/49 19/50 3/51
f 19/52 20/53 3/54
f 20/55 21/56 3/57
f 21/58 22/59 3/60
f 22/61 23/62 3/63
f 23/64 24/65 3/66
f 24/67 25/68 3/69
f 25/70 26/71 3/72
f 26/73 27/74 3/75
f 27/76 28/77 3/78
f 28/79 29/80 3/81
f 29/82 30/83 3/84
f 30/85 31/86 3/87
f 31/88 32/89 3/90
f 32/91 33/92 3/93
f 33/94 1/95 3/96
