# Converted from FlightGear/ArduPilot Rascal AC3D geometry
mtllib rascal.mtl
o R_Aileron
v -0.0010140 -0.0083080 0.0968500
v -0.0010140 -0.0083080 0.0000070
v -0.2104250 -0.0006930 -0.0074720
v -0.2104250 -0.0006930 0.0841500
v -0.4388740 0.0076140 -0.0156310
v -0.4388740 0.0076140 0.0624160
v -0.5975200 0.0133830 -0.0212970
v -0.5975200 0.0133830 0.0345750
v -0.6422000 0.0231630 -0.0228930
v -0.5971600 0.0234050 -0.0212840
v -0.6422000 0.0150080 0.0226510
v -0.0004340 0.0076380 0.0000270
v -0.2098520 0.0150780 -0.0074520
v -0.4383450 0.0221820 -0.0156120
v -0.6422000 0.0150080 -0.0228930
vt 0.4802950 0.4253890
vt 0.4802950 0.3358840
vt 0.3809230 0.3285780
vt 0.3809230 0.4135160
vt 0.3809230 0.4135160
vt 0.3809230 0.3285780
vt 0.2712260 0.3212710
vt 0.2712260 0.3934230
vt 0.2712260 0.3934230
vt 0.2712260 0.3212710
vt 0.1950840 0.3157910
vt 0.1950840 0.3678500
vt 0.1744350 0.3148780
vt 0.1963750 0.3157910
vt 0.1950840 0.3678500
vt 0.1744350 0.3568900
vt 0.4802950 0.3358840
vt 0.4802950 0.4253890
vt 0.3809230 0.4135160
vt 0.3809230 0.3285780
vt 0.3809230 0.3285780
vt 0.3809230 0.4135160
vt 0.2712260 0.3934230
vt 0.2712260 0.3212710
vt 0.2712260 0.3212710
vt 0.2712260 0.3934230
vt 0.1950840 0.3678500
vt 0.1963750 0.3157910
vt 0.1744350 0.3148780
vt 0.1744350 0.3568900
vt 0.1950840 0.3678500
vt 0.1950840 0.3157910
vt 0.4802950 0.4253890
vt 0.4802950 0.3358840
vt 0.4802950 0.3358840
vt 0.4802950 0.3358840
vt 0.3809230 0.3285780
vt 0.3809230 0.3285780
vt 0.4802950 0.3358840
vt 0.3809230 0.3285780
vt 0.2712260 0.3212710
vt 0.2712260 0.3212710
vt 0.3809230 0.3285780
vt 0.2712260 0.3212710
vt 0.1963750 0.3157910
vt 0.1950840 0.3157910
vt 0.2712260 0.3212710
vt 0.1963750 0.3157910
vt 0.1744350 0.3148780
vt 0.1744350 0.3148780
vt 0.1950840 0.3157910
vt 0.1744350 0.3148780
vt 0.1744350 0.3568900
vt 0.1744350 0.3148780
usemtl tex_mat1
f 1/1 2/2 3/3 4/4
f 4/5 3/6 5/7 6/8
f 6/9 5/10 7/11 8/12
f 9/13 10/14 8/15 11/16
f 12/17 1/18 4/19 13/20
f 13/21 4/22 6/23 14/24
f 14/25 6/26 8/27 10/28
f 15/29 11/30 8/31 7/32
f 1/33 12/34 2/35
f 12/36 13/37 3/38 2/39
f 13/40 14/41 5/42 3/43
f 14/44 10/45 7/46 5/47
f 10/48 9/49 15/50 7/51
f 9/52 11/53 15/54
