# Converted from FlightGear/ArduPilot Rascal AC3D geometry
mtllib rascal.mtl
o Rudder
v 0.0063500 -0.0429984 0.0183800
v 0.0054993 -0.0429984 0.0215500
v 0.0054993 -0.0302984 0.0475400
v 0.0063500 -0.0302984 0.0443600
v 0.0031750 -0.0429984 0.0238800
v 0.0031750 -0.0302984 0.0498600
v 0.0000000 -0.0429984 0.0247300
v 0.0000000 -0.0302984 0.0507100
v -0.0031750 -0.0429984 0.0238800
v -0.0031750 -0.0302984 0.0498600
v -0.0054993 -0.0429984 0.0215500
v -0.0054993 -0.0302984 0.0475400
v -0.0063500 -0.0429984 0.0183800
v -0.0063500 -0.0302984 0.0443600
v -0.0063500 -0.0429984 0.0006000
v -0.0063500 -0.0302984 0.0006000
v 0.0054993 -0.0112484 0.0702100
v 0.0063500 -0.0112484 0.0670300
v 0.0031750 -0.0112484 0.0725300
v 0.0000000 -0.0112484 0.0733800
v -0.0031750 -0.0112484 0.0725300
v -0.0054993 -0.0112484 0.0702100
v -0.0063500 -0.0112484 0.0670300
v -0.0063500 -0.0112484 0.0006000
v 0.0054993 0.0078016 0.0838900
v 0.0063500 0.0078016 0.0807200
v 0.0031750 0.0078016 0.0862200
v 0.0000000 0.0078016 0.0870700
v -0.0031750 0.0078016 0.0862200
v -0.0054993 0.0078016 0.0838900
v -0.0063500 0.0078016 0.0807200
v -0.0063500 0.0078016 0.0006000
v 0.0054993 0.0332016 0.0946400
v 0.0063500 0.0332016 0.0914700
v 0.0031750 0.0332016 0.0969600
v 0.0000000 0.0332016 0.0978200
v -0.0031750 0.0332016 0.0969600
v -0.0054993 0.0332016 0.0946400
v -0.0063500 0.0332016 0.0914700
v -0.0063500 0.0332016 0.0006000
v 0.0054993 0.0678846 0.0987200
v 0.0063500 0.0678846 0.0955500
v 0.0031750 0.0678846 0.1010500
v 0.0000000 0.0678846 0.1019000
v -0.0031750 0.0678846 0.1010500
v -0.0054993 0.0678846 0.0987200
v -0.0063500 0.0678846 0.0955500
v -0.0063500 0.0676649 0.0006000
v 0.0054993 0.0996346 0.0973500
v 0.0063500 0.0996346 0.0941700
v 0.0031750 0.0996346 0.0996700
v 0.0000000 0.0996346 0.1005200
v -0.0031750 0.0996346 0.0996700
v -0.0054993 0.0996346 0.0973500
v -0.0063500 0.0996346 0.0941700
v -0.0063500 0.0996346 0.0006000
v 0.0054993 0.1422970 0.0908400
v 0.0063500 0.1422970 0.0876700
v 0.0031750 0.1422970 0.0931700
v 0.0000000 0.1422970 0.0940200
v -0.0031750 0.1422970 0.0931700
v -0.0054993 0.1422970 0.0908400
v -0.0063500 0.1422970 0.0876700
v -0.0063500 0.1422970 0.0006000
v 0.0054993 0.1849600 0.0806700
v 0.0063500 0.1849600 0.0774900
v 0.0031750 0.1849600 0.0829900
v 0.0000000 0.1849600 0.0838400
v -0.0031750 0.1849600 0.0829900
v -0.0054993 0.1849600 0.0806700
v -0.0063500 0.1849600 0.0774900
v -0.0063500 0.1849600 0.0006000
v 0.0054993 0.2276230 0.0669000
v 0.0063500 0.2276230 0.0637200
v 0.0031750 0.2276230 0.0692200
v 0.0000000 0.2276230 0.0700700
v -0.0031750 0.2276230 0.0692200
v -0.0054993 0.2276230 0.0669000
v -0.0063500 0.2276230 0.0637200
v -0.0063500 0.2276230 0.0006000
v 0.0054993 0.2699560 0.0512800
v 0.0063500 0.2699560 0.0481100
v 0.0031750 0.2699560 0.0536000
v 0.0000000 0.2699560 0.0544600
v -0.0031750 0.2699560 0.0536000
v -0.0054993 0.2699560 0.0512800
v -0.0063500 0.2699560 0.0481100
v -0.0063500 0.2699560 0.0006000
v 0.0063500 -0.0467241 0.0006000
v 0.0063500 -0.0429984 0.0006000
v 0.0054993 -0.0473896 0.0006000
v 0.0031750 -0.0478767 0.0006000
v 0.0000000 -0.0480550 0.0006000
v -0.0031750 -0.0478767 0.0006000
v -0.0054993 -0.0473896 0.0006000
v -0.0063500 -0.0467241 0.0006000
v 0.0063500 -0.0302984 0.0006000
v 0.0063500 -0.0112484 0.0006000
v 0.0063500 0.0078016 0.0006000
v 0.0063500 0.0332016 0.0006000
v 0.0063500 0.0676649 0.0006000
v 0.0063500 0.0996346 0.0006000
v 0.0063500 0.1422970 0.0006000
v 0.0063500 0.1849600 0.0006000
v 0.0063500 0.2276230 0.0006000
v 0.0063500 0.2699560 0.0006000
vt 0.9124510 0.7737100
vt 0.9139810 0.7737100
vt 0.9265290 0.7615130
vt 0.9249940 0.7615130
vt 0.9139810 0.7737100
vt 0.9151060 0.7737100
vt 0.9276490 0.7615130
vt 0.9265290 0.7615130
vt 0.9151060 0.7737100
vt 0.9155160 0.7737100
vt 0.9280600 0.7615130
vt 0.9276490 0.7615130
vt 0.9155160 0.7737100
vt 0.9151060 0.7737100
vt 0.9276490 0.7615130
vt 0.9280600 0.7615130
vt 0.9151060 0.7737100
vt 0.9139810 0.7737100
vt 0.9265290 0.7615130
vt 0.9276490 0.7615130
vt 0.9139810 0.7737100
vt 0.9124510 0.7737100
vt 0.9249940 0.7615130
vt 0.9265290 0.7615130
vt 0.9124510 0.7737100
vt 0.9038660 0.7737100
vt 0.9038660 0.7615130
vt 0.9249940 0.7615130
vt 0.9249940 0.7615130
vt 0.9265290 0.7615130
vt 0.9374740 0.7432190
vt 0.9359390 0.7432190
vt 0.9265290 0.7615130
vt 0.9276490 0.7615130
vt 0.9385950 0.7432190
vt 0.9374740 0.7432190
vt 0.9276490 0.7615130
vt 0.9280600 0.7615130
vt 0.9390050 0.7432190
vt 0.9385950 0.7432190
vt 0.9280600 0.7615130
vt 0.9276490 0.7615130
vt 0.9385950 0.7432190
vt 0.9390050 0.7432190
vt 0.9276490 0.7615130
vt 0.9265290 0.7615130
vt 0.9374740 0.7432190
vt 0.9385950 0.7432190
vt 0.9265290 0.7615130
vt 0.9249940 0.7615130
vt 0.9359390 0.7432190
vt 0.9374740 0.7432190
vt 0.9249940 0.7615130
vt 0.9038660 0.7615130
vt 0.9038660 0.7432190
vt 0.9359390 0.7432190
vt 0.9359390 0.7432190
vt 0.9374740 0.7432190
vt 0.9440790 0.7249240
vt 0.9425490 0.7249240
vt 0.9374740 0.7432190
vt 0.9385950 0.7432190
vt 0.9452040 0.7249240
vt 0.9440790 0.7249240
vt 0.9385950 0.7432190
vt 0.9390050 0.7432190
vt 0.9456150 0.7249240
vt 0.9452040 0.7249240
vt 0.9390050 0.7432190
vt 0.9385950 0.7432190
vt 0.9452040 0.7249240
vt 0.9456150 0.7249240
vt 0.9385950 0.7432190
vt 0.9374740 0.7432190
vt 0.9440790 0.7249240
vt 0.9452040 0.7249240
vt 0.9374740 0.7432190
vt 0.9359390 0.7432190
vt 0.9425490 0.7249240
vt 0.9440790 0.7249240
vt 0.9359390 0.7432190
vt 0.9038660 0.7432190
vt 0.9038660 0.7249240
vt 0.9425490 0.7249240
vt 0.9425490 0.7249240
vt 0.9440790 0.7249240
vt 0.9492690 0.7005310
vt 0.9477390 0.7005310
vt 0.9440790 0.7249240
vt 0.9452040 0.7249240
vt 0.9503900 0.7005310
vt 0.9492690 0.7005310
vt 0.9452040 0.7249240
vt 0.9456150 0.7249240
vt 0.9508050 0.7005310
vt 0.9503900 0.7005310
vt 0.9456150 0.7249240
vt 0.9452040 0.7249240
vt 0.9503900 0.7005310
vt 0.9508050 0.7005310
vt 0.9452040 0.7249240
vt 0.9440790 0.7249240
vt 0.9492690 0.7005310
vt 0.9503900 0.7005310
vt 0.9440790 0.7249240
vt 0.9425490 0.7249240
vt 0.9477390 0.7005310
vt 0.9492690 0.7005310
vt 0.9425490 0.7249240
vt 0.9038660 0.7249240
vt 0.9038660 0.7005310
vt 0.9477390 0.7005310
vt 0.9477390 0.7005310
vt 0.9492690 0.7005310
vt 0.9512390 0.6672230
vt 0.9497090 0.6672230
vt 0.9492690 0.7005310
vt 0.9503900 0.7005310
vt 0.9523640 0.6672230
vt 0.9512390 0.6672230
vt 0.9503900 0.7005310
vt 0.9508050 0.7005310
vt 0.9527750 0.6672230
vt 0.9523640 0.6672230
vt 0.9508050 0.7005310
vt 0.9503900 0.7005310
vt 0.9523640 0.6672230
vt 0.9527750 0.6672230
vt 0.9503900 0.7005310
vt 0.9492690 0.7005310
vt 0.9512390 0.6672230
vt 0.9523640 0.6672230
vt 0.9492690 0.7005310
vt 0.9477390 0.7005310
vt 0.9497090 0.6672230
vt 0.9512390 0.6672230
vt 0.9477390 0.7005310
vt 0.9038660 0.7005310
vt 0.9038660 0.6674340
vt 0.9497090 0.6672230
vt 0.9497090 0.6672230
vt 0.9512390 0.6672230
vt 0.9505780 0.6367320
vt 0.9490420 0.6367320
vt 0.9512390 0.6672230
vt 0.9523640 0.6672230
vt 0.9516980 0.6367320
vt 0.9505780 0.6367320
vt 0.9523640 0.6672230
vt 0.9527750 0.6672230
vt 0.9521080 0.6367320
vt 0.9516980 0.6367320
vt 0.9527750 0.6672230
vt 0.9523640 0.6672230
vt 0.9516980 0.6367320
vt 0.9521080 0.6367320
vt 0.9523640 0.6672230
vt 0.9512390 0.6672230
vt 0.9505780 0.6367320
vt 0.9516980 0.6367320
vt 0.9512390 0.6672230
vt 0.9497090 0.6672230
vt 0.9490420 0.6367320
vt 0.9505780 0.6367320
vt 0.9497090 0.6672230
vt 0.9038660 0.6674340
vt 0.9038660 0.6367320
vt 0.9490420 0.6367320
vt 0.9490420 0.6367320
vt 0.9505780 0.6367320
vt 0.9474350 0.5957610
vt 0.9459040 0.5957610
vt 0.9505780 0.6367320
vt 0.9516980 0.6367320
vt 0.9485600 0.5957610
vt 0.9474350 0.5957610
vt 0.9516980 0.6367320
vt 0.9521080 0.6367320
vt 0.9489700 0.5957610
vt 0.9485600 0.5957610
vt 0.9521080 0.6367320
vt 0.9516980 0.6367320
vt 0.9485600 0.5957610
vt 0.9489700 0.5957610
vt 0.9516980 0.6367320
vt 0.9505780 0.6367320
vt 0.9474350 0.5957610
vt 0.9485600 0.5957610
vt 0.9505780 0.6367320
vt 0.9490420 0.6367320
vt 0.9459040 0.5957610
vt 0.9474350 0.5957610
vt 0.9490420 0.6367320
vt 0.9038660 0.6367320
vt 0.9038660 0.5957610
vt 0.9459040 0.5957610
vt 0.9459040 0.5957610
vt 0.9474350 0.5957610
vt 0.9425250 0.5547900
vt 0.9409890 0.5547900
vt 0.9474350 0.5957610
vt 0.9485600 0.5957610
vt 0.9436450 0.5547900
vt 0.9425250 0.5547900
vt 0.9485600 0.5957610
vt 0.9489700 0.5957610
vt 0.9440550 0.5547900
vt 0.9436450 0.5547900
vt 0.9489700 0.5957610
vt 0.9485600 0.5957610
vt 0.9436450 0.5547900
vt 0.9440550 0.5547900
vt 0.9485600 0.5957610
vt 0.9474350 0.5957610
vt 0.9425250 0.5547900
vt 0.9436450 0.5547900
vt 0.9474350 0.5957610
vt 0.9459040 0.5957610
vt 0.9409890 0.5547900
vt 0.9425250 0.5547900
vt 0.9459040 0.5957610
vt 0.9038660 0.5957610
vt 0.9038660 0.5547900
vt 0.9409890 0.5547900
vt 0.9409890 0.5547900
vt 0.9425250 0.5547900
vt 0.9358760 0.5138180
vt 0.9343410 0.5138180
vt 0.9425250 0.5547900
vt 0.9436450 0.5547900
vt 0.9369970 0.5138180
vt 0.9358760 0.5138180
vt 0.9436450 0.5547900
vt 0.9440550 0.5547900
vt 0.9374070 0.5138180
vt 0.9369970 0.5138180
vt 0.9440550 0.5547900
vt 0.9436450 0.5547900
vt 0.9369970 0.5138180
vt 0.9374070 0.5138180
vt 0.9436450 0.5547900
vt 0.9425250 0.5547900
vt 0.9358760 0.5138180
vt 0.9369970 0.5138180
vt 0.9425250 0.5547900
vt 0.9409890 0.5547900
vt 0.9343410 0.5138180
vt 0.9358760 0.5138180
vt 0.9409890 0.5547900
vt 0.9038660 0.5547900
vt 0.9038660 0.5138180
vt 0.9343410 0.5138180
vt 0.9343410 0.5138180
vt 0.9358760 0.5138180
vt 0.9283350 0.4731630
vt 0.9268040 0.4731630
vt 0.9358760 0.5138180
vt 0.9369970 0.5138180
vt 0.9294550 0.4731630
vt 0.9283350 0.4731630
vt 0.9369970 0.5138180
vt 0.9374070 0.5138180
vt 0.9298700 0.4731630
vt 0.9294550 0.4731630
vt 0.9374070 0.5138180
vt 0.9369970 0.5138180
vt 0.9294550 0.4731630
vt 0.9298700 0.4731630
vt 0.9369970 0.5138180
vt 0.9358760 0.5138180
vt 0.9283350 0.4731630
vt 0.9294550 0.4731630
vt 0.9358760 0.5138180
vt 0.9343410 0.5138180
vt 0.9268040 0.4731630
vt 0.9283350 0.4731630
vt 0.9343410 0.5138180
vt 0.9038660 0.5138180
vt 0.9038660 0.4731630
vt 0.9268040 0.4731630
vt 0.9038660 0.7772880
vt 0.9124510 0.7737100
vt 0.9038660 0.7737100
vt 0.9038660 0.7779270
vt 0.9139810 0.7737100
vt 0.9124510 0.7737100
vt 0.9038660 0.7772880
vt 0.9038660 0.7783950
vt 0.9151060 0.7737100
vt 0.9139810 0.7737100
vt 0.9038660 0.7779270
vt 0.9038660 0.7785660
vt 0.9155160 0.7737100
vt 0.9151060 0.7737100
vt 0.9038660 0.7783950
vt 0.9038660 0.7783950
vt 0.9151060 0.7737100
vt 0.9155160 0.7737100
vt 0.9038660 0.7785660
vt 0.9038660 0.7779270
vt 0.9139810 0.7737100
vt 0.9151060 0.7737100
vt 0.9038660 0.7783950
vt 0.9038660 0.7772880
vt 0.9124510 0.7737100
vt 0.9139810 0.7737100
vt 0.9038660 0.7779270
vt 0.9038660 0.7737100
vt 0.9124510 0.7737100
vt 0.9038660 0.7772880
vt 0.9038660 0.7737100
vt 0.9124510 0.7737100
vt 0.9249940 0.7615130
vt 0.9038660 0.7615130
vt 0.9038660 0.7615130
vt 0.9249940 0.7615130
vt 0.9359390 0.7432190
vt 0.9038660 0.7432190
vt 0.9038660 0.7432190
vt 0.9359390 0.7432190
vt 0.9425490 0.7249240
vt 0.9038660 0.7249240
vt 0.9038660 0.7249240
vt 0.9425490 0.7249240
vt 0.9477390 0.7005310
vt 0.9038660 0.7005310
vt 0.9038660 0.7005310
vt 0.9477390 0.7005310
vt 0.9497090 0.6672230
vt 0.9038660 0.6674340
vt 0.9038660 0.6674340
vt 0.9497090 0.6672230
vt 0.9490420 0.6367320
vt 0.9038660 0.6367320
vt 0.9038660 0.6367320
vt 0.9490420 0.6367320
vt 0.9459040 0.5957610
vt 0.9038660 0.5957610
vt 0.9038660 0.5957610
vt 0.9459040 0.5957610
vt 0.9409890 0.5547900
vt 0.9038660 0.5547900
vt 0.9038660 0.5547900
vt 0.9409890 0.5547900
vt 0.9343410 0.5138180
vt 0.9038660 0.5138180
vt 0.9038660 0.5138180
vt 0.9343410 0.5138180
vt 0.9268040 0.4731630
vt 0.9038660 0.4731630
vt 0.9038660 0.7615130
vt 0.9038660 0.7615130
vt 0.9038660 0.7432190
vt 0.9038660 0.7432190
vt 0.9294550 0.4731630
vt 0.9298700 0.4731630
vt 0.9294550 0.4731630
vt 0.9283350 0.4731630
vt 0.9294550 0.4731630
vt 0.9294550 0.4731630
vt 0.9283350 0.4731630
vt 0.9268040 0.4731630
vt 0.9283350 0.4731630
vt 0.9283350 0.4731630
vt 0.9268040 0.4731630
vt 0.9038660 0.4731630
vt 0.9268040 0.4731630
vt 0.9268040 0.4731630
vt 0.9038660 0.4731630
vt 0.9038660 0.5138180
vt 0.9038660 0.4731630
vt 0.9038660 0.4731630
vt 0.9038660 0.5138180
vt 0.9038660 0.5547900
vt 0.9038660 0.5138180
vt 0.9038660 0.5138180
vt 0.9038660 0.5547900
vt 0.9038660 0.5957610
vt 0.9038660 0.5547900
vt 0.9038660 0.5547900
vt 0.9038660 0.5957610
vt 0.9038660 0.6367320
vt 0.9038660 0.5957610
vt 0.9038660 0.5957610
vt 0.9038660 0.6367320
vt 0.9038660 0.6674340
vt 0.9038660 0.6367320
vt 0.9038660 0.6367320
vt 0.9038660 0.6674340
vt 0.9038660 0.7005310
vt 0.9038660 0.6674340
vt 0.9038660 0.6674340
vt 0.9038660 0.7005310
vt 0.9038660 0.7249240
vt 0.9038660 0.7005310
vt 0.9038660 0.7005310
vt 0.9038660 0.7249240
vt 0.9038660 0.7432190
vt 0.9038660 0.7249240
vt 0.9038660 0.7249240
vt 0.9038660 0.7432190
vt 0.9038660 0.7615130
vt 0.9038660 0.7737100
vt 0.9038660 0.7737100
vt 0.9038660 0.7615130
vt 0.9038660 0.7737100
vt 0.9038660 0.7785660
vt 0.9038660 0.7737100
vt 0.9038660 0.7779270
vt 0.9038660 0.7772880
vt 0.9038660 0.7737100
vt 0.9038660 0.7737100
vt 0.9038660 0.7772880
vt 0.9038660 0.7779270
vt 0.9038660 0.7737100
vt 0.9038660 0.7779270
vt 0.9038660 0.7783950
vt 0.9038660 0.7783950
vt 0.9038660 0.7779270
vt 0.9038660 0.7737100
vt 0.9038660 0.7785660
vt 0.9038660 0.7783950
vt 0.9038660 0.7737100
vt 0.9038660 0.7737100
vt 0.9038660 0.7783950
vt 0.9038660 0.7785660
usemtl tex_mat1
f 1/1 2/2 3/3 4/4
f 2/5 5/6 6/7 3/8
f 5/9 7/10 8/11 6/12
f 7/13 9/14 10/15 8/16
f 9/17 11/18 12/19 10/20
f 11/21 13/22 14/23 12/24
f 13/25 15/26 16/27 14/28
f 4/29 3/30 17/31 18/32
f 3/33 6/34 19/35 17/36
f 6/37 8/38 20/39 19/40
f 8/41 10/42 21/43 20/44
f 10/45 12/46 22/47 21/48
f 12/49 14/50 23/51 22/52
f 14/53 16/54 24/55 23/56
f 18/57 17/58 25/59 26/60
f 17/61 19/62 27/63 25/64
f 19/65 20/66 28/67 27/68
f 20/69 21/70 29/71 28/72
f 21/73 22/74 30/75 29/76
f 22/77 23/78 31/79 30/80
f 23/81 24/82 32/83 31/84
f 26/85 25/86 33/87 34/88
f 25/89 27/90 35/91 33/92
f 27/93 28/94 36/95 35/96
f 28/97 29/98 37/99 36/100
f 29/101 30/102 38/103 37/104
f 30/105 31/106 39/107 38/108
f 31/109 32/110 40/111 39/112
f 34/113 33/114 41/115 42/116
f 33/117 35/118 43/119 41/120
f 35/121 36/122 44/123 43/124
f 36/125 37/126 45/127 44/128
f 37/129 38/130 46/131 45/132
f 38/133 39/134 47/135 46/136
f 39/137 40/138 48/139 47/140
f 42/141 41/142 49/143 50/144
f 41/145 43/146 51/147 49/148
f 43/149 44/150 52/151 51/152
f 44/153 45/154 53/155 52/156
f 45/157 46/158 54/159 53/160
f 46/161 47/162 55/163 54/164
f 47/165 48/166 56/167 55/168
f 50/169 49/170 57/171 58/172
f 49/173 51/174 59/175 57/176
f 51/177 52/178 60/179 59/180
f 52/181 53/182 61/183 60/184
f 53/185 54/186 62/187 61/188
f 54/189 55/190 63/191 62/192
f 55/193 56/194 64/195 63/196
f 58/197 57/198 65/199 66/200
f 57/201 59/202 67/203 65/204
f 59/205 60/206 68/207 67/208
f 60/209 61/210 69/211 68/212
f 61/213 62/214 70/215 69/216
f 62/217 63/218 71/219 70/220
f 63/221 64/222 72/223 71/224
f 66/225 65/226 73/227 74/228
f 65/229 67/230 75/231 73/232
f 67/233 68/234 76/235 75/236
f 68/237 69/238 77/239 76/240
f 69/241 70/242 78/243 77/244
f 70/245 71/246 79/247 78/248
f 71/249 72/250 80/251 79/252
f 74/253 73/254 81/255 82/256
f 73/257 75/258 83/259 81/260
f 75/261 76/262 84/263 83/264
f 76/265 77/266 85/267 84/268
f 77/269 78/270 86/271 85/272
f 78/273 79/274 87/275 86/276
f 79/277 80/278 88/279 87/280
f 89/281 1/282 90/283
f 91/284 2/285 1/286 89/287
f 92/288 5/289 2/290 91/291
f 93/292 7/293 5/294 92/295
f 94/296 9/297 7/298 93/299
f 95/300 11/301 9/302 94/303
f 96/304 13/305 11/306 95/307
f 15/308 13/309 96/310
f 90/311 1/312 4/313 97/314
f 97/315 4/316 18/317 98/318
f 98/319 18/320 26/321 99/322
f 99/323 26/324 34/325 100/326
f 100/327 34/328 42/329 101/330
f 101/331 42/332 50/333 102/334
f 102/335 50/336 58/337 103/338
f 103/339 58/340 66/341 104/342
f 104/343 66/344 74/345 105/346
f 105/347 74/348 82/349 106/350
f 16/351 97/352 98/353 24/354
f 83/355 84/356 85/357
f 81/358 83/359 85/360 86/361
f 82/362 81/363 86/364 87/365
f 106/366 82/367 87/368 88/369
f 105/370 106/371 88/372 80/373
f 104/374 105/375 80/376 72/377
f 103/378 104/379 72/380 64/381
f 102/382 103/383 64/384 56/385
f 101/386 102/387 56/388 48/389
f 100/390 101/391 48/392 40/393
f 99/394 100/395 40/396 32/397
f 98/398 99/399 32/400 24/401
f 16/402 15/403 90/404 97/405
f 15/406 93/407 90/408
f 91/409 89/410 90/411
f 15/412 96/413 95/414
f 15/415 95/416 94/417
f 92/418 91/419 90/420
f 93/421 92/422 90/423
f 15/424 94/425 93/426
